<?xml version="1.0" encoding="utf-8"?>
<!-- Generator: Adobe Illustrator 19.0.0, SVG Export Plug-In . SVG Version: 6.00 Build 0)  -->
<svg version="1.1" id="Layer_1" xmlns="http://www.w3.org/2000/svg" xmlns:xlink="http://www.w3.org/1999/xlink" x="0px" y="0px"
	 width="537.054px" height="543.054px" viewBox="-36 125.946 537.054 543.054"
	 style="enable-background:new -36 125.946 537.054 543.054;" xml:space="preserve">
<style type="text/css">

</style>




<polygon class="logo" points="85.541,271.154 112.541,271.154 112.541,393.487 211.541,271.154 376.874,271.154 376.874,300.154
	310.874,300.154 311.208,515.154 284.541,515.154 283.874,300.154 222.541,300.154 163.541,370.82 250.874,515.154 216.208,515.154
	144.874,393.154 112.208,431.154 112.874,515.154 85.541,515.154 "/>
<rect x="-17.459" y="150.223" class="line" width="31.333" height="495.25"/>
<rect x="13.874" y="614.348" class="line" width="434.667" height="31.125"/>
<rect x="15.235" y="150.223" class="line" width="434.667" height="29.64"/>
<rect x="451.333" y="150.223" class="line" width="31.333" height="495.25"/>
<rect x="10.5" y="151.861" class="st2" width="13.583" height="25.918"/>
<rect x="443.11" y="151.861" class="st2" width="13.583" height="25.918"/>
<rect x="443.069" y="615.882" class="st3" width="13.583" height="28.056"/>
<rect x="8.443" y="615.882" class="st3" width="13.583" height="28.056"/>
<rect x="436.943" y="164.82" class="st3" width="25.918" height="13.583"/>
<rect x="4.333" y="164.82" class="st3" width="25.918" height="13.583"/>
</svg>
